<?xml version="1.0" standalone="no"?>
<!DOCTYPE svg PUBLIC "-//W3C//DTD SVG 20010904//EN"
 "http://www.w3.org/TR/2001/REC-SVG-20010904/DTD/svg10.dtd">
<svg version="1.0" xmlns="http://www.w3.org/2000/svg"
 width="3543.000000pt" height="1772.000000pt" viewBox="0 0 3543.000000 1772.000000"
 preserveAspectRatio="xMidYMid meet">

<g transform="translate(0.000000,1772.000000) scale(0.100000,-0.100000)"
fill="#000000" stroke="none">
<path d="M21270 10760 l0 -1900 525 0 525 0 0 1900 0 1900 -525 0 -525 0 0
-1900z m850 0 l0 -1690 -320 0 -320 0 0 1690 0 1690 320 0 320 0 0 -1690z"/>
<path d="M21699 12317 c-124 -66 -147 -245 -43 -336 l34 -30 0 -1195 0 -1195
-29 -20 c-71 -51 -90 -162 -43 -252 87 -167 342 -132 381 52 18 81 -3 144 -63
197 l-36 31 0 1188 0 1189 35 33 c66 61 85 131 61 214 -36 124 -182 184 -297
124z"/>
<path d="M24361 12649 c-132 -10 -259 -31 -351 -60 -214 -68 -352 -216 -409
-440 -40 -158 -46 -246 -46 -709 0 -379 3 -462 18 -558 61 -387 217 -555 572
-616 184 -32 372 -36 1735 -36 933 0 1377 -3 1403 -11 54 -15 71 -57 65 -167
-4 -69 -8 -87 -27 -105 l-22 -22 -1874 -3 -1875 -2 0 -320 0 -320 1933 0
c1883 0 2089 3 2206 32 152 37 240 139 273 313 18 97 18 790 0 895 -31 177
-119 281 -273 318 -114 28 -317 32 -1758 32 -1008 0 -1504 3 -1546 11 -122 21
-174 74 -194 199 -6 36 -11 202 -11 370 0 168 5 334 11 370 20 125 72 178 194
199 42 8 559 11 1618 11 l1557 0 0 -105 0 -105 -1517 -2 c-1412 -3 -1520 -4
-1549 -20 -44 -24 -82 -72 -91 -116 -10 -48 -10 -416 0 -465 4 -20 22 -53 38
-72 61 -69 -30 -65 1611 -65 1484 0 1590 -2 1737 -36 145 -33 264 -121 321
-238 69 -143 84 -273 84 -741 0 -395 -11 -525 -54 -651 -57 -165 -174 -268
-351 -308 -150 -34 -248 -36 -2107 -36 l-1849 0 -44 44 c-70 69 -150 81 -239
36 -138 -71 -142 -280 -5 -357 87 -49 177 -39 247 27 l41 40 1801 0 c1098 0
1856 4 1941 10 331 24 505 85 628 221 89 98 134 205 170 403 21 113 22 151 22
576 0 486 -7 577 -57 739 -77 250 -239 386 -527 441 -187 36 -342 40 -1763 40
l-1387 0 -28 24 c-26 22 -28 31 -31 108 -5 113 5 149 48 170 33 17 129 18
1578 18 l1542 0 0 315 0 315 -1627 0 c-1570 -1 -1759 -4 -1878 -31 -151 -35
-237 -129 -273 -297 -24 -113 -24 -811 0 -924 36 -168 122 -262 273 -297 118
-27 305 -30 1744 -31 1014 0 1514 -3 1556 -11 94 -16 135 -43 170 -114 l30
-60 0 -400 0 -400 -30 -60 c-35 -71 -76 -98 -170 -114 -42 -8 -650 -11 -1933
-11 l-1872 0 0 110 0 110 1833 2 c1708 3 1834 4 1863 20 39 21 82 71 92 106 9
35 9 439 0 474 -10 35 -53 85 -92 106 -29 16 -143 17 -1596 23 -1674 6 -1619
4 -1765 54 -154 53 -255 169 -299 342 -28 113 -36 242 -36 613 0 482 18 623
95 755 56 97 172 176 305 208 145 35 241 37 2040 37 l1780 0 0 -281 0 -280
-31 -27 c-92 -77 -90 -226 4 -309 131 -115 340 -20 340 155 0 66 -16 102 -67
151 l-36 35 0 383 0 383 -1857 -1 c-1022 -1 -1909 -6 -1972 -10z"/>
<path d="M29250 12135 l0 -525 950 0 950 0 0 -1375 0 -1375 525 0 525 0 0
1585 0 1585 594 0 593 0 44 -44 c95 -95 242 -81 319 31 28 41 38 132 21 185
-13 40 -61 92 -105 116 -72 38 -211 9 -252 -53 l-16 -25 -704 0 -704 0 0
-1585 0 -1585 -320 0 -320 0 0 1375 0 1375 -950 0 -950 0 0 315 0 315 2220 0
2220 0 0 -315 0 -315 -599 0 -599 0 -16 25 c-18 28 -74 59 -124 70 -115 24
-242 -83 -242 -205 0 -93 70 -180 162 -200 76 -17 130 -1 187 56 l44 44 698 0
699 0 0 525 0 525 -2425 0 -2425 0 0 -525z"/>
<path d="M29718 12330 c-93 -28 -150 -104 -150 -200 0 -186 219 -277 347 -144
l42 44 806 0 807 0 0 -1230 0 -1230 -39 -36 c-49 -43 -65 -88 -59 -164 6 -80
40 -130 113 -165 46 -23 64 -27 105 -22 58 7 95 24 134 64 81 79 74 222 -14
296 l-30 26 0 1335 0 1336 -911 0 -912 0 -42 39 c-59 54 -128 72 -197 51z"/>
</g>
</svg>
